<svg id="svg2" xmlns:rdf="http://www.w3.org/1999/02/22-rdf-syntax-ns#" xmlns="http://www.w3.org/2000/svg" viewBox="0 0 220 220" height="16" width="16" version="1.0" xmlns:cc="http://creativecommons.org/ns#" xmlns:xlink="http://www.w3.org/1999/xlink" xmlns:dc="http://purl.org/dc/elements/1.1/">
 <defs id="defs4">
  <linearGradient id="linearGradient2449" y2="425.4" gradientUnits="userSpaceOnUse" x2="-395.85" gradientTransform="matrix(-.59146 0 0 .59146 210.02 142.23)" y1="274.71" x1="-344.15">
   <stop id="stop2557" stop-color="#fff" offset="0"/>
   <stop id="stop2559" stop-color="#fff" stop-opacity="0" offset="1"/>
  </linearGradient>
 </defs>
 <metadata id="metadata7">
  <rdf:RDF>
   <cc:Work rdf:about="">
    <dc:format>image/svg+xml</dc:format>
    <dc:type rdf:resource="http://purl.org/dc/dcmitype/StillImage"/>
    <dc:title/>
    <dc:creator>
     <cc:Agent>
      <dc:title/>
     </cc:Agent>
    </dc:creator>
    <dc:subject>
     <rdf:Bag/>
    </dc:subject>
    <cc:license rdf:resource="http://creativecommons.org/licenses/publicdomain/"/>
    <dc:description/>
    <dc:contributor>
     <cc:Agent>
      <dc:title/>
     </cc:Agent>
    </dc:contributor>
   </cc:Work>
   <cc:License rdf:about="http://creativecommons.org/licenses/publicdomain/">
    <cc:permits rdf:resource="http://creativecommons.org/ns#Reproduction"/>
    <cc:permits rdf:resource="http://creativecommons.org/ns#Distribution"/>
    <cc:permits rdf:resource="http://creativecommons.org/ns#DerivativeWorks"/>
   </cc:License>
  </rdf:RDF>
 </metadata>
 <g id="layer1" transform="translate(-373.64 -318.34)">
  
  <path id="path4776" d="m115.71 124.57c0 22.289-16.629 40.357-37.143 40.357-20.513 0-37.143-18.069-37.143-40.357 0-22.289 16.629-40.357 37.143-40.357 20.513 0 37.143 18.069 37.143 40.357z" transform="translate(373.64 318.34)" fill="#0059d4"/>
  <path id="path4778" d="m215.71 127.61c0 21.993-17.109 39.821-38.214 39.821s-38.214-17.829-38.214-39.821c0-21.993 17.109-39.821 38.214-39.821s38.214 17.829 38.214 39.821z" transform="translate(368.64 314.77)" fill="#da1593"/>
 </g>
</svg>